<svg id="Layer_1" data-name="Layer 1" xmlns="http://www.w3.org/2000/svg" viewBox="0 0 300 450"><defs><style>.cls-1{fill:#eb872b;}.cls-2{fill:#0d7300;}</style></defs><path class="cls-1" d="M14.37-1.3l7.82.8-24,24-.8-7.81A15.49,15.49,0,0,1,14.37-1.3Z"/><path class="cls-1" d="M285.17,450.48l-7.81-.8,24-24,.8,7.81A15.49,15.49,0,0,1,285.17,450.48Z"/><path class="cls-1" d="M-1.61,433.49l.8-7.81,24,24-7.82.8A15.49,15.49,0,0,1-1.61,433.49Z"/><path class="cls-1" d="M302.16,15.69l-.8,7.81-24-24,7.81-.8A15.49,15.49,0,0,1,302.16,15.69Z"/><path class="cls-1" d="M272.83,449.5h-245L-.81,420.86V27.93L27.62-.5H272l28.15,28.15v394.5Z"/><path class="cls-2" d="M267.76,446.5H31.69L3.19,418V32.86L31.54,4.5H267.9l28.29,28.29V418.08Z"/></svg>